<?xml version="1.0" standalone="no"?>
<!DOCTYPE svg PUBLIC "-//W3C//DTD SVG 20010904//EN"
 "http://www.w3.org/TR/2001/REC-SVG-20010904/DTD/svg10.dtd">
<svg version="1.0" xmlns="http://www.w3.org/2000/svg"
 width="329.000000pt" height="329.000000pt" viewBox="0 0 329.000000 329.000000"
 preserveAspectRatio="xMidYMid meet">
<metadata>
Created by potrace 1.11, written by Peter Selinger 2001-2013
</metadata>
<g transform="translate(0.000000,329.000000) scale(0.100000,-0.100000)"
fill="#000000" stroke="none">
<path d="M1942 3274 c-18 -10 -45 -33 -60 -52 l-27 -35 -5 -906 -5 -906 -25
-28 c-39 -45 -59 -106 -56 -177 l3 -63 -71 -71 c-91 -91 -154 -210 -172 -324
-13 -79 -45 -186 -71 -235 -15 -29 -60 -84 -99 -124 -57 -57 -92 -81 -166
-117 -84 -41 -261 -96 -309 -96 -40 0 -45 -66 -5 -75 42 -8 152 -24 211 -30
33 -3 71 -8 85 -10 91 -17 491 -25 600 -14 130 14 156 19 235 39 116 29 199
73 264 140 113 115 162 270 162 505 0 169 -38 281 -124 367 -29 29 -50 57 -49
63 2 5 4 35 4 66 0 58 -25 123 -64 166 -20 21 -20 38 -22 920 l-1 898 -22 35
c-42 68 -142 98 -211 64z"/>
</g>
</svg>
